<svg id="vector" xmlns="http://www.w3.org/2000/svg" width="512" height="512" viewBox="0 0 339.55 339.55">
  <path fill="#fff"
        d="M253.9,231.66c4.3,4.3 4.29,11.26 -0,15.56c-2.15,2.15 -4.96,3.22 -7.78,3.22c-2.82,0 -5.63,-1.07 -7.78,-3.22l-11.31,-11.31c-4.3,-4.3 -4.29,-11.26 0,-15.56c4.3,-4.29 11.26,-4.29 15.56,0L253.9,231.66zM115.25,166.17c35.63,0 57.69,-35.19 57.69,-67.78V18.41c0,-2.92 -1.16,-5.72 -3.22,-7.78c-2.06,-2.06 -4.86,-3.22 -7.78,-3.22l-46.69,0c-6.07,0 -11,4.93 -11,11v79.57c0,6.07 4.93,11 11,11s11,-4.93 11,-11V29.41l24.69,-0v68.97c0,19.19 -12.4,45.78 -35.69,45.78c-19.35,0 -35.7,-20.97 -35.7,-45.78V18.76c0,-6.07 -4.93,-11 -11,-11s-11,4.93 -11,11v79.62C57.55,135.76 83.43,166.17 115.25,166.17zM339.55,60.21v260.94c0,6.07 -4.93,11 -11,11H11c-6.07,0 -11,-4.93 -11,-11V60.21c0,-6.07 4.93,-11 11,-11h15.16c6.07,0 11,4.93 11,11s-4.93,11 -11,11H22v238.94h117.73c3.23,-16.42 13.63,-31.8 29.8,-43.97c-14.51,-35.26 -11.27,-68.85 9.09,-89.22c19.42,-19.42 51.31,-23.25 84.96,-10.75c13.08,-25.32 32.37,-41.66 53.97,-45.82V71.21H206.72c-6.07,0 -11,-4.93 -11,-11s4.93,-11 11,-11h121.84C334.63,49.21 339.55,54.13 339.55,60.21zM317.55,262.27c-21.11,4.97 -37.69,23.96 -41.65,47.87h41.65V262.27zM317.55,143.05c-15.33,4.83 -29.16,19.63 -38.29,41.6c-1.15,2.77 -3.38,4.94 -6.17,6.03s-5.91,0.98 -8.62,-0.28c-28.69,-13.35 -55.63,-12.54 -70.29,2.12c-15.18,15.18 -15.55,43.03 -0.96,72.69c2.5,5.08 0.73,11.23 -4.08,14.21c-13.97,8.65 -23.17,19.29 -26.77,30.74h33.85c-0.19,-0.81 -0.29,-1.66 -0.29,-2.53c0,-6.07 4.93,-11 11,-11h15.99c6.07,0 11,4.93 11,11c0,0.87 -0.1,1.72 -0.29,2.53h20.07c4.47,-36.19 30.7,-64.99 63.87,-70.28v-25.66c-0.27,0.02 -0.55,0.03 -0.82,0.03c-6.07,0 -11,-4.93 -11,-11v-16c0,-6.07 4.93,-11 11,-11c0.28,0 0.55,0.01 0.82,0.03V143.05z"
        id="path_0"/>
</svg>
