<svg id="vector" xmlns="http://www.w3.org/2000/svg" width="512" height="512" viewBox="0 0 24 24">
  <path fill="none" d="M4,20v-3l7,-7" stroke="#E6D9C4" stroke-width="1.5" id="path_0"/>
  <path fill="none" d="M2,22l2,-2h3l7,-7" stroke="#A79473" stroke-linecap="round" stroke-width="1.5" id="path_1"/>
  <path fill="none"
        d="M14.29,13.3a1,1 0,0 0,1.41 0l0.8,-0.8c0.27,-0.27 0.27,-0.72 0,-1s-0.28,-0.72 0,-1l4.08,-4.08a2,2 0,0 0,0 -2.83l-0.17,-0.17a2,2 0,0 0,-2.83 0L13.5,7.51c-0.28,0.27 -0.73,0.27 -1,0s-0.73,-0.28 -1,0l-0.8,0.79a1,1 0,0 0,0 1.41l3.59,3.59z"
        stroke="#59503F" stroke-width="1.5" id="path_2"/>
</svg>
